<svg width="281" height="281" viewBox="0 0 281 281" fill="none" xmlns="http://www.w3.org/2000/svg">
<path d="M140.014 0C217.345 0 280.028 62.682 280.028 140.014C280.028 217.337 217.346 280.028 140.014 280.028C62.682 280.028 0 217.336 0 140.014C0 62.682 62.682 0 140.014 0Z" fill="#E4E7E7"/>
<path d="M140.014 43.746C193.175 43.746 236.273 86.844 236.273 140.005C236.273 193.158 193.175 236.264 140.014 236.264C86.853 236.264 43.755 193.157 43.755 140.005C43.754 86.843 86.852 43.746 140.014 43.746Z" fill="#9B7048"/>
<path d="M140 75C178.652 75 210 106.561 210 145.5C210 184.439 178.651 216 140 216C101.349 216 70 184.439 70 145.5C70 106.561 101.348 75 140 75Z" fill="#1F1F1F"/>
<path d="M179.393 87.5C191.478 87.5 201.27 97.292 201.27 109.377C201.27 121.462 191.478 131.254 179.393 131.254C167.308 131.254 157.516 121.462 157.516 109.377C157.516 97.292 167.308 87.5 179.393 87.5Z" fill="#D4EDF6"/>
<path d="M191.04 127.841C187.496 112.93 177.634 100.486 164.385 93.529C160.176 97.511 157.516 103.12 157.516 109.377C157.516 121.462 167.308 131.254 179.393 131.254C183.689 131.254 187.662 129.976 191.04 127.841Z" fill="#D6DBDE"/>
<path d="M148.765 227.513C95.604 227.513 52.506 184.406 52.506 131.254C52.506 106.9 61.624 84.726 76.536 67.775C56.479 85.417 43.755 111.197 43.755 140.005C43.755 193.158 86.853 236.264 140.014 236.264C168.822 236.264 194.602 223.54 212.244 203.483C195.284 218.395 173.118 227.513 148.765 227.513Z" fill="#5A422B"/>
</svg>
