<svg width="197" height="160" viewBox="0 0 197 160" fill="none" xmlns="http://www.w3.org/2000/svg">
<path d="M194.787 83.9243C197.254 77.9638 196.056 71.3663 191.575 66.2703C187.073 61.1572 180.076 58.2168 172.362 58.2168H112.688C117.922 48.0134 121.079 41.7913 121.079 27.2768C121.121 22.8576 119.253 18.2735 115.441 13.4846C112.967 10.4532 109.768 7.33075 105.936 4.20263C100.305 -0.39856 91.5661 -0.864936 85.3291 3.33813C79.3987 7.35919 79.3917 12.8704 79.3847 17.3066C79.4823 19.4963 79.0224 23.6027 78.8203 25.8493C74.1303 34.6307 68.6598 39.0272 61.7817 44.5042C58.9593 46.7508 55.8443 49.2306 52.562 52.2165C55.1126 55.3389 56.6109 59.0813 56.6109 63.1081V138.285C56.6109 140.589 56.0464 142.767 55.2171 144.843H156.759C159.47 144.781 162.09 143.416 163.184 141.368L194.787 83.9243Z" fill="#FCD2B4"/>
<path d="M56.6108 138.28V63.1024C56.6108 59.0757 55.1126 55.3333 52.562 52.2108C48.2274 46.8987 40.8406 43.3895 32.4571 43.3895H29.0912C13.5649 43.3895 0.9375 53.6953 0.9375 66.3613V138.28C0.9375 150.047 12.6729 159.625 27.0912 159.625H30.4571C42.0531 159.625 51.8024 153.391 55.2171 144.837C56.0464 142.762 56.6108 140.583 56.6108 138.28Z" fill="#3A749D"/>
</svg>
