<svg width="197" height="160" viewBox="0 0 197 160" fill="none" xmlns="http://www.w3.org/2000/svg">
<path d="M194.787 83.9244C197.254 77.9639 196.056 71.3664 191.575 66.2704C187.073 61.1573 180.076 58.2169 172.362 58.2169H112.688C117.922 48.0135 121.079 41.7914 121.079 27.2769C121.121 22.8577 119.253 18.2736 115.441 13.4847C112.967 10.4532 109.768 7.33081 105.936 4.20269C100.305 -0.398499 91.5661 -0.864875 85.3291 3.33819C79.3987 7.35925 79.3917 12.8704 79.3847 17.3067C79.4823 19.4964 79.0224 23.6027 78.8203 25.8493C74.1303 34.6308 68.6598 39.0272 61.7817 44.5043C58.9593 46.7509 55.8443 49.2306 52.562 52.2166C55.1126 55.339 56.6109 59.0814 56.6109 63.1081V138.285C56.6109 140.589 56.0464 142.767 55.2171 144.843H156.759C159.47 144.781 162.09 143.416 163.184 141.368L194.787 83.9244Z" fill="#FCD2B4"/>
<path d="M56.6108 138.28V63.1024C56.6108 59.0757 55.1126 55.3333 52.562 52.2109C48.2274 46.8987 40.8406 43.3896 32.4571 43.3896H29.0912C13.5649 43.3896 0.9375 53.6953 0.9375 66.3614V138.28C0.9375 150.047 12.6729 159.625 27.0912 159.625H30.4571C42.0531 159.625 51.8024 153.391 55.2171 144.837C56.0464 142.762 56.6108 140.583 56.6108 138.28Z" fill="#517A46"/>
</svg>
